<svg width="500" height="500" viewBox="0 0 500 500" fill="none" xmlns="http://www.w3.org/2000/svg">
<rect width="500" height="500" fill="#E5E5E5"/>
<rect width="500" height="500" fill="white"/>
<mask id="mask0_101_774" style="mask-type:alpha" maskUnits="userSpaceOnUse" x="60" y="101" width="301" height="296">
<path d="M356.803 240.629C350.492 215.607 342.196 191.128 331.992 167.425L328.687 159.845C324.635 150.435 318.537 142.046 310.837 135.288C303.137 128.529 294.026 123.571 284.171 120.774L276.17 118.497C251.346 111.441 225.998 106.387 200.367 103.382L192.105 102.416C181.93 101.219 171.615 102.304 161.912 105.592C152.208 108.881 143.359 114.289 136.007 121.425L130.037 127.218C111.522 145.195 94.4711 164.619 79.0455 185.307L74.0788 191.966C67.9573 200.18 63.7419 209.655 61.7387 219.701C59.7355 229.747 59.9948 240.113 62.4977 250.047L64.5305 258.102C70.8417 283.125 79.1386 307.604 89.3425 331.306L92.6348 338.946C96.6873 348.356 102.785 356.746 110.485 363.504C118.186 370.262 127.295 375.22 137.151 378.017L145.152 380.294C169.975 387.35 195.323 392.404 220.955 395.409L229.217 396.375C239.401 397.563 249.724 396.466 259.43 393.161C269.139 389.857 277.986 384.43 285.332 377.276L291.303 371.483C309.818 353.507 326.869 334.083 342.294 313.394L347.261 306.735C353.382 298.521 357.598 289.047 359.601 279.001C361.605 268.954 361.344 258.588 358.842 248.654L356.803 240.629Z" fill="white"/>
</mask>
<g mask="url(#mask0_101_774)">
<rect x="91.389" y="71" width="303.708" height="303.708" transform="rotate(11.2766 91.389 71)" fill="#00D0FF"/>
</g>
<path d="M381.766 367C380.626 354.24 377.55 343.074 372.537 333.504C367.524 323.82 361.201 315.503 353.567 308.553C346.048 301.603 337.503 295.849 327.933 291.292C318.476 286.735 308.735 283.146 298.709 280.525C288.683 277.791 278.657 275.911 268.631 274.886C258.719 273.746 249.49 273.177 240.945 273.177H222.146V367H158.743V132.186H222.146V222.762H235.135C243.908 222.762 253.079 222.078 262.649 220.711C272.22 219.344 281.676 217.179 291.019 214.217C300.475 211.255 309.533 207.438 318.191 202.767C326.85 198.095 334.598 192.399 341.434 185.677C348.27 178.955 353.966 171.207 358.523 162.435C363.081 153.548 365.929 143.465 367.068 132.186H431.668C430.529 144.604 428.022 155.826 424.148 165.853C420.389 175.879 415.66 184.879 409.964 192.854C404.381 200.716 398.115 207.609 391.165 213.533C384.215 219.458 377.094 224.585 369.803 228.914C362.511 233.13 355.219 236.661 347.928 239.51C340.75 242.244 334.028 244.352 327.762 245.833C335.737 247.086 343.997 249.08 352.542 251.814C361.201 254.435 369.746 257.967 378.177 262.41C386.608 266.74 394.64 272.094 402.273 278.475C410.021 284.855 416.971 292.317 423.123 300.862C429.275 309.407 434.402 319.148 438.504 330.086C442.605 341.023 445.226 353.328 446.365 367H381.766Z" fill="#090909"/>
</svg>
