<svg width="1471" height="304" viewBox="0 0 1471 304" fill="none" xmlns="http://www.w3.org/2000/svg">
<rect width="1471" height="304" fill="transparent"/>
<g clip-path="url(#clip0_101_774)">
<rect width="1471" height="304" fill="transparent"/>
<mask id="mask0_101_774" style="mask-type:alpha" maskUnits="userSpaceOnUse" x="2" y="2" width="301" height="296">
<path d="M298.803 141.629C292.492 116.607 284.196 92.1284 273.992 68.4254L270.687 60.8449C266.635 51.435 260.537 43.0459 252.837 36.2876C245.137 29.5292 236.026 24.5709 226.171 21.7736L218.17 19.4969C193.346 12.4411 167.998 7.3868 142.367 4.38209L134.105 3.41601C123.93 2.21921 113.615 3.30432 103.912 6.59249C94.2083 9.88063 85.3591 15.2894 78.0075 22.4254L72.0366 28.2184C53.5222 46.195 36.4711 65.6195 21.0455 86.3073L16.0788 92.9664C9.95729 101.18 5.74189 110.655 3.73869 120.701C1.73545 130.747 1.99482 141.113 4.49772 151.047L6.53053 159.102C12.8417 184.125 21.1386 208.604 31.3425 232.306L34.6348 239.946C38.6873 249.356 44.785 257.746 52.4853 264.504C60.1857 271.262 69.2949 276.22 79.1512 279.017L87.1519 281.294C111.975 288.35 137.323 293.404 162.955 296.409L171.217 297.375C181.401 298.563 191.724 297.466 201.43 294.161C211.139 290.857 219.986 285.43 227.332 278.276L233.303 272.483C251.818 254.507 268.869 235.083 284.294 214.394L289.261 207.735C295.382 199.521 299.598 190.047 301.601 180.001C303.605 169.954 303.344 159.588 300.842 149.654L298.803 141.629Z" fill="white"/>
</mask>
<g mask="url(#mask0_101_774)">
<rect x="33.389" y="-28" width="303.708" height="303.708" transform="rotate(11.2766 33.389 -28)" fill="#00D0FF"/>
</g>
<defs>
    <filter id="whiteGlow" x="-50%" y="-50%" width="200%" height="200%" >
      <feDropShadow dx="0" dy="0" stdDeviation="6" flood-color="white" flood-opacity="1"/>
    </filter>
  </defs>
<path d="M323.492 267.727C322.353 254.966 319.277 243.801 314.264 234.231C309.251 224.546 302.928 216.229 295.294 209.279C287.775 202.33 279.23 196.576 269.659 192.019C260.203 187.461 250.462 183.873 240.436 181.252C230.41 178.518 220.384 176.638 210.358 175.612C200.446 174.473 191.217 173.904 182.672 173.904H163.873V267.727H100.47V32.9123H163.873V123.488H176.862C185.634 123.488 194.806 122.805 204.376 121.438C213.947 120.07 223.403 117.906 232.745 114.944C242.202 111.981 251.259 108.165 259.918 103.493C268.577 98.8221 276.324 93.1255 283.16 86.4035C289.996 79.6815 295.693 71.9341 300.25 63.1613C304.808 54.2746 307.656 44.1916 308.795 32.9123H373.395C372.255 45.3309 369.749 56.5532 365.875 66.5793C362.115 76.6053 357.387 85.606 351.691 93.5812C346.108 101.443 339.842 108.335 332.892 114.26C325.942 120.184 318.821 125.311 311.53 129.641C304.238 133.856 296.946 137.388 289.655 140.237C282.477 142.971 275.755 145.079 269.489 146.56C277.464 147.813 285.724 149.807 294.269 152.541C302.928 155.162 311.473 158.694 319.904 163.137C328.335 167.466 336.367 172.821 344 179.201C351.748 185.582 358.698 193.044 364.85 201.589C371.002 210.134 376.129 219.875 380.231 230.813C384.332 241.75 386.953 254.055 388.092 267.727H323.492ZM711.015 177.492C711.015 192.759 707.255 206.374 699.736 218.337C692.216 230.3 681.506 240.44 667.607 248.757C653.821 256.96 637.073 263.226 617.363 267.556C597.766 271.885 575.777 274.05 551.396 274.05C540.686 274.05 529.407 273.594 517.558 272.683C505.823 271.885 494.316 270.689 483.036 269.094C471.871 267.613 461.389 265.904 451.591 263.967C441.793 261.916 433.533 259.695 426.811 257.302V201.589C434.102 204.665 442.192 207.57 451.078 210.305C460.079 213.039 469.82 215.489 480.302 217.654C490.784 219.704 502.006 221.356 513.969 222.61C526.046 223.749 538.806 224.319 552.25 224.319C564.897 224.319 576.005 223.578 585.575 222.097C595.26 220.616 603.634 218.622 610.698 216.115C617.761 213.609 623.629 210.761 628.3 207.57C632.971 204.266 636.731 200.905 639.579 197.487C642.428 193.956 644.421 190.481 645.561 187.063C646.814 183.645 647.441 180.455 647.441 177.492V156.814C635.82 165.359 621.977 172.422 605.912 178.005C589.848 183.474 571.562 186.208 551.054 186.208C527.242 186.208 507.361 183.93 491.41 179.372C475.574 174.701 462.87 168.036 453.3 159.377C443.73 150.604 436.894 139.952 432.792 127.419C428.805 114.887 426.811 100.759 426.811 85.0363V32.9123H490.556V78.7131C490.556 87.9416 491.752 96.1447 494.145 103.322C496.651 110.5 500.525 116.539 505.766 121.438C511.121 126.223 518.014 129.869 526.445 132.375C534.876 134.882 545.073 136.135 557.035 136.135C567.175 136.135 576.746 134.882 585.746 132.375C594.861 129.869 603.235 126.565 610.868 122.463C618.502 118.362 625.395 113.69 631.547 108.449C637.699 103.209 642.997 97.8537 647.441 92.3849V32.9123H711.015V177.492ZM931.57 267.727H857.741L738.967 32.9123H809.719L895.168 209.621L980.447 32.9123H1051.2L931.57 267.727ZM1079.32 267.727V32.9123H1142.72V267.727H1079.32ZM1464.62 251.662C1456.42 255.08 1448.16 258.156 1439.84 260.891C1431.52 263.625 1422.92 265.961 1414.04 267.898C1405.15 269.948 1395.75 271.487 1385.84 272.512C1376.04 273.537 1365.5 274.05 1354.22 274.05C1330.3 274.05 1308.25 271.487 1288.08 266.36C1268.03 261.233 1250.71 253.542 1236.13 243.288C1221.66 232.92 1210.38 220.046 1202.29 204.665C1194.2 189.17 1190.16 171.112 1190.16 150.49C1190.16 129.869 1194.2 111.867 1202.29 96.4865C1210.38 80.9917 1221.66 68.1174 1236.13 57.8635C1250.71 47.4956 1268.03 39.7482 1288.08 34.6213C1308.25 29.4943 1330.3 26.9308 1354.22 26.9308C1365.5 26.9308 1376.04 27.4435 1385.84 28.4689C1395.75 29.4943 1405.15 31.0324 1414.04 33.0832C1422.92 35.02 1431.52 37.3557 1439.84 40.09C1448.16 42.8244 1456.42 45.9006 1464.62 49.3185V106.399C1458.13 102.867 1451.29 99.3918 1444.11 95.9738C1436.94 92.4419 1429.02 89.3088 1420.36 86.5744C1411.7 83.7261 1402.19 81.4474 1391.82 79.7385C1381.45 77.9155 1369.77 77.0041 1356.79 77.0041C1336.85 77.0041 1320.27 79.0549 1307.05 83.1564C1293.95 87.258 1283.47 92.7267 1275.61 99.5627C1267.75 106.399 1262.22 114.26 1259.03 123.147C1255.84 131.919 1254.25 141.034 1254.25 150.49C1254.25 156.757 1254.93 162.966 1256.3 169.118C1257.66 175.157 1259.94 180.91 1263.13 186.379C1266.32 191.734 1270.48 196.69 1275.61 201.247C1280.74 205.805 1287.12 209.735 1294.75 213.039C1302.38 216.343 1311.27 218.964 1321.41 220.901C1331.66 222.723 1343.46 223.635 1356.79 223.635C1369.77 223.635 1381.45 222.837 1391.82 221.242C1402.19 219.533 1411.7 217.312 1420.36 214.577C1429.02 211.843 1436.94 208.767 1444.11 205.349C1451.29 201.817 1458.13 198.228 1464.62 194.582V251.662Z" fill="#fff" stroke="#090909" stroke-width="3"/>
</g>
<defs>
<clipPath id="clip0_101_774">
<rect width="1471" height="304" fill="white"/>
</clipPath>
</defs>
</svg>
